<!-- Generator: Adobe Illustrator 21.1.0, SVG Export Plug-In  -->
<svg version="1.1"
	 xmlns="http://www.w3.org/2000/svg" xmlns:xlink="http://www.w3.org/1999/xlink" xmlns:a="http://ns.adobe.com/AdobeSVGViewerExtensions/3.0/"
	 x="0px" y="0px" width="49.8px" height="49.8px" viewBox="0 0 49.8 49.8" style="enable-background:new 0 0 49.8 49.8;"
	 xml:space="preserve">
<defs>
</defs>
<path d="M33.4,32.8c-0.4-0.3-0.8-0.4-1.1-0.7c-3.8-3.8-7.5-7.5-11.3-11.3c-1.1-1.1-2.2-2.2-3.3-3.3c-0.8-0.8-0.8-1.6,0-2.4
	c0.5-0.5,1-1,1.5-1.5c0.8-0.8,1.6-0.8,2.4,0c3.4,3.4,6.7,6.7,10.1,10.1c1.5,1.5,3,3,4.5,4.5c0.9,0.9,0.9,1.6,0,2.5
	c-0.5,0.5-1,1.1-1.6,1.5C34.2,32.5,33.9,32.6,33.4,32.8 M27.2,17.8c-0.8-0.8-1.6-1.6-2.4-2.4c0.1-0.1,0.1-0.2,0.2-0.3
	c1.4-1.4,2.9-2.9,4.3-4.3c0.8-0.8,1.8-0.8,2.5-0.1c0.7,0.7,0.7,1.7-0.1,2.5C30.3,14.7,28.8,16.2,27.2,17.8z M34.4,25
	c-0.8-0.8-1.6-1.6-2.4-2.4c0.8-0.8,1.6-1.5,2.4-2.3c0.7-0.7,1.5-1.5,2.2-2.2c0.8-0.8,1.8-0.8,2.5-0.1c0.7,0.7,0.6,1.7-0.1,2.5
	C37.4,21.9,35.9,23.4,34.4,25z M49.8,25c-0.1,14-11,23.8-22.5,24.7c-5.1,0.4-9.8-0.4-14-2.7c-2.3-1.2-1.8-3.4-0.1-3.9
	c0.7-0.2,1.7,0.1,2.4,0.5c2.9,1.4,6.2,2.2,9.7,2.1c11.1-0.3,20.3-9.2,20.4-20.8c0-11.4-9.3-20.8-20.8-20.8
	c-11.5,0-20.9,9.3-20.9,20.8c0,4.8,1.6,9.3,4.4,12.8c0.4,0.5,0.7,0.1,1.1-0.3c1.2-1.2,1.9-1.9,3.1-3.1c0.2-0.2,0.3-0.4,0.1-0.7
	c-2.1-3.6-1.5-8.1,1.4-11.1c1.2-1.2,2.3-2.3,3.5-3.5c4.4,4.4,8.8,8.8,13.2,13.2c-1.4,1.4-2.8,3-4.4,4.2c-3.2,2.4-6.6,2.5-10.1,0.7
	c-0.4-0.2-0.6-0.1-0.8,0.1c-1.3,1.3-2.5,2.6-3.8,3.8l0,0l0,0l-1.1,1.1c-1.3,1.4-2.9,0.8-3.3,0.3C2.6,37.7,0,32,0,24.9
	C-0.1,11.1,11.1,0,24.9,0C38.7,0,49.8,11.2,49.8,25z"/>
</svg>
