<!-- Generator: Adobe Illustrator 21.1.0, SVG Export Plug-In  -->
<svg version="1.1"
	 xmlns="http://www.w3.org/2000/svg" xmlns:xlink="http://www.w3.org/1999/xlink" xmlns:a="http://ns.adobe.com/AdobeSVGViewerExtensions/3.0/"
	 x="0px" y="0px" width="40.3px" height="53.7px" viewBox="0 0 40.3 53.7" style="enable-background:new 0 0 40.3 53.7;"
	 xml:space="preserve">
<defs>
</defs>
<path d="M8.3,48.5c-0.9-9.6-1.7-19.2-2.6-28.8h20.6c-0.9,9.6-1.7,19.2-2.6,28.8H8.3z M18.6,42.9c-0.1-0.2-0.1-0.3-0.1-0.4
	c-0.7-1.4-1.4-2.7-2.2-4.1c-0.1-0.2-0.6-0.3-0.7-0.2c-1.2,0.6-2.4,1.2-3.6,1.8c-0.6,0.3-0.8,0.7-0.4,1.4c0.6,1.1,1.1,2.3,1.6,3.5
	c0.3,0.6,0.6,0.9,1.3,0.5c1.3-0.7,2.5-1.3,3.8-2C18.3,43.3,18.5,43.1,18.6,42.9z M22.6,32.4c-0.2-0.2-0.4-0.4-0.6-0.5
	c-0.5-0.3-1.1-0.5-1.7-0.8c-3.4-1.6-2.8-2-4.1,1.6c-1,2.6-0.9,2.6,1.6,3.7c2.5,1.1,2.5,1.1,3.6-1.3C21.8,34.2,22.2,33.4,22.6,32.4z
	 M13.9,23.5c-0.2,0.1-0.3,0.1-0.5,0.1c-1.3,0.6-2.6,1.1-3.9,1.8c-0.2,0.1-0.5,0.8-0.3,1.1c0.6,1.3,1.2,2.6,1.9,3.8
	c0.1,0.2,0.7,0.4,0.9,0.3c1.3-0.5,2.5-1.1,3.7-1.7c0.3-0.2,0.6-0.8,0.5-1.1c-0.5-1.3-1.1-2.5-1.7-3.8C14.3,23.8,14,23.7,13.9,23.5z
	 M21.3,10.1c2-4.5,2.9-6.1,4.2-8.9c0.4-0.9,1-1.2,1.9-1.2c3.7,0,7.4,0,11.1,0c2.2,0,2.8,2.8-0.3,2.8c-3,0-6,0-9,0
	c-1,0-1.4,0.3-1.8,1.2c-0.8,1.9-1.8,3.8-2.7,5.6C24.5,9.8,24.2,10,24,10C23.1,10.1,22.3,10.1,21.3,10.1z M16,12.8
	c4.6,0,9.2,0,13.9,0c1.8,0,2.3,0.6,2.1,2.3c-1.1,11.2-2.1,22.4-3.2,33.6c-0.1,1.2-0.3,2.4-0.4,3.6c-0.1,0.9-0.6,1.4-1.6,1.4
	c-7.2,0-14.4,0-21.7,0c-1,0-1.5-0.5-1.6-1.5c-0.3-3.6-0.5-7.3-0.9-10.9C1.8,32.5,0.9,23.7,0,14.9c-0.2-1.5,0.4-2.1,2-2.1
	C6.7,12.7,11.3,12.7,16,12.8L16,12.8z M29,15.7H2.9C4.1,27.4,5.3,39,6.4,50.6c0.3,0,0.5,0,0.7,0.1c5.8,0,11.6,0,17.3,0.1
	c1.1,0,1.2-0.6,1.3-1.4c0.8-7.8,1.5-15.5,2.3-23.3C28.4,22.7,28.7,19.3,29,15.7z"/>
</svg>
