<!-- Generator: Adobe Illustrator 21.1.0, SVG Export Plug-In  -->
<svg version="1.1"
	 xmlns="http://www.w3.org/2000/svg" xmlns:xlink="http://www.w3.org/1999/xlink" xmlns:a="http://ns.adobe.com/AdobeSVGViewerExtensions/3.0/"
	 x="0px" y="0px" width="38.7px" height="53.7px" viewBox="0 0 38.7 53.7" style="enable-background:new 0 0 38.7 53.7;"
	 xml:space="preserve">
<style type="text/css">
	.st0{fill-rule:evenodd;clip-rule:evenodd;fill:#020202;}
	.st1{fill-rule:evenodd;clip-rule:evenodd;fill:#FFFFFF;}
	.st2{fill:#FFFFFF;}
</style>
<defs>
</defs>
<path class="st0" d="M2.7,18.3c0.8,3.1,1.1,8,1.5,11.2c0.4,3,2.6,21.6,3.1,22.9c0.5,1.6,3.3,1.1,5.3,1.1l13.1,0
	c7,0,5.4,1.8,7.3-12.3c1-7.7,1.8-15.5,3.1-23.2c3.3-0.3,2.6-2.9,2.6-6c0-3.1-0.9-4.8-3-5.9c-2-1.1-1.9-3.7-3.2-5.4
	c-0.8-1.1-6.3-0.7-8.2-0.7h-14c-3.9,0-3.6-0.4-5,2.8C2.9,7.9,4,4.9,1.8,7c-2.3,2.2-1.8,8.9-1.4,9.7C0.5,17,1,17.5,1.3,17.6l1.2,0.6
	C2.6,18.2,2.6,18.3,2.7,18.3"/>
<path class="st1" d="M3.3,14.9l32,0c0-4.4,0.7-5.7-2.7-6c-3.6-7.1-0.2-6.3-13.1-6.2c-12.8,0-9.5-0.9-13.1,6.2
	C2.8,9.1,3.3,10.3,3.3,14.9"/>
<path class="st1" d="M10.2,50.3c5.4,0.2,12.5,0.1,18.1,0c0.6-1.2,1.2-7.4,1.3-9.2L9,41.2L10.2,50.3z"/>
<polygon class="st1" points="6.8,24.6 31.9,24.6 32.7,18.1 6,18 "/>
<path class="st2" d="M27.9,32.2c-0.2,0-0.4,0.1-0.4-0.2c0-0.2,0.2-0.4,0.4-0.4c0.2,0,0.4,0.2,0.4,0.4C28.3,32.2,28.1,32.2,27.9,32.2
	 M29.1,32.8c0.2,0,0.4-0.1,0.4-0.5c0-0.5-0.5-1.3-1.6-1.3c-1,0-1.8,0.7-1.8,1.7c0,0.8,0.6,1.7,1.8,1.7c0.6,0,1.5-0.4,1.5-0.9
	c0-0.1-0.1-0.3-0.3-0.3c-0.1,0-0.4,0.3-0.9,0.3c-0.3,0-0.7-0.3-0.7-0.6c0-0.1,0.1-0.1,0.2-0.1H29.1z M24.3,32.2
	c-0.2,0-0.4,0.1-0.4-0.2c0-0.2,0.2-0.4,0.4-0.4c0.2,0,0.4,0.2,0.4,0.4C24.7,32.2,24.5,32.2,24.3,32.2z M25.6,32.8
	c0.2,0,0.4-0.1,0.4-0.5c0-0.5-0.5-1.3-1.6-1.3c-1,0-1.8,0.7-1.8,1.7c0,0.8,0.6,1.7,1.8,1.7c0.6,0,1.5-0.4,1.5-0.9
	c0-0.1-0.1-0.3-0.3-0.3c-0.1,0-0.4,0.3-0.9,0.3c-0.3,0-0.7-0.3-0.7-0.6c0-0.1,0.1-0.1,0.2-0.1H25.6z M20.1,33.3
	c0,0.4-0.5,0.2-0.5,0.6c0,0.5,0.8,0.5,1.1,0.5c1.4,0,1.5-0.3,1.5-0.5c0-0.4-0.5-0.2-0.6-0.6c0-0.2-0.1-0.4-0.1-0.6
	c0-0.4,0.1-0.4,0.4-0.4c0.1,0,0.2,0,0.2-0.1l0-0.5c0-0.2-0.4-0.1-0.6-0.1c-0.1,0-0.1,0-0.1-0.1c-0.1-0.3-0.8-0.4-0.8-0.8
	c0-0.1,0.1-0.2,0.2-0.2c0.4,0,0.4,0.6,1,0.6c0.3,0,0.5-0.2,0.5-0.5c0-0.3-0.2-0.8-1.3-0.8c-0.6,0-1.4,0.3-1.4,1
	c0,0.4,0.2,0.6,0.2,0.8c0,0.1-0.1,0.1-0.2,0.1c-0.2,0-0.2,0.1-0.2,0.6c0,0.1,0.2,0.1,0.3,0.1c0.2,0,0.3,0.1,0.3,0.3L20.1,33.3z
	 M17,33.3c0,0.4-0.5,0.2-0.5,0.6c0,0.5,0.8,0.5,1.1,0.5c1.4,0,1.5-0.3,1.5-0.5c0-0.4-0.5-0.2-0.6-0.6c0-0.2-0.1-0.4-0.1-0.6
	c0-0.4,0.1-0.4,0.4-0.4c0.1,0,0.2,0,0.2-0.1l0-0.5c0-0.2-0.4-0.1-0.6-0.1c-0.1,0-0.1,0-0.1-0.1c-0.1-0.3-0.8-0.4-0.8-0.8
	c0-0.1,0.1-0.2,0.2-0.2c0.4,0,0.4,0.6,1,0.6c0.3,0,0.5-0.2,0.5-0.5c0-0.3-0.2-0.8-1.3-0.8c-0.6,0-1.4,0.3-1.4,1
	c0,0.4,0.2,0.6,0.2,0.8c0,0.1-0.1,0.1-0.2,0.1c-0.2,0-0.2,0.1-0.2,0.6c0,0.1,0.2,0.1,0.3,0.1c0.2,0,0.3,0.1,0.3,0.3L17,33.3z
	 M14.9,33.2c0,0.2-0.1,0.4-0.3,0.4c-0.4,0-0.6-1-0.6-1.4c0-0.2,0.1-0.4,0.3-0.4C14.7,31.8,14.9,32.9,14.9,33.2z M14.3,34.4
	c0.9,0,2.1-0.6,2.1-1.7c0-0.8-0.6-1.7-1.8-1.7c-1.1,0-2.1,0.6-2.1,1.8C12.5,33.8,13.3,34.4,14.3,34.4z M8.9,32.7
	c0,1,0.8,1.7,1.8,1.7c0.9,0,1.5-0.5,1.5-0.9c0-0.2-0.1-0.3-0.3-0.3c-0.1,0-0.3,0.2-0.7,0.2c-0.5,0-0.9-0.5-0.9-1
	c0-0.3,0.2-0.5,0.4-0.5c0.5,0,0.2,0.8,0.9,0.8c0.4,0,0.6-0.3,0.6-0.6c0-0.5-0.5-1-1.5-1C9.7,31,8.9,31.8,8.9,32.7z"/>
</svg>
