<!-- Generator: Adobe Illustrator 21.1.0, SVG Export Plug-In  -->
<svg version="1.1"
	 xmlns="http://www.w3.org/2000/svg" xmlns:xlink="http://www.w3.org/1999/xlink" xmlns:a="http://ns.adobe.com/AdobeSVGViewerExtensions/3.0/"
	 x="0px" y="0px" width="64.3px" height="53.7px" viewBox="0 0 64.3 53.7" style="enable-background:new 0 0 64.3 53.7;"
	 xml:space="preserve">
<style type="text/css">
	.st0{fill:#FFFFFF;}
	.st1{fill:#141515;}
</style>
<defs>
</defs>
<path d="M62.8,27.4c0.4-0.1,1-0.1,1.2,0.1c0.3,0.3,0.4,1,0.2,1.3c-4,8.6-9.5,16.1-17.8,20.9c-10.6,6.1-21.1,5.1-31-1.5
	c-7.4-4.9-12.1-12-14.9-20.3c-0.8-2.4-0.9-3.9,2.9-4.7C4.2,23,5.1,23,6,22.9C6,23,6,23.1,6,23.2c-0.6,0.2-1.2,0.3-1.8,0.6
	c-1.5,0.8-2.1,1.5-0.4,2.7C14.6,33.9,54.2,29.9,62.8,27.4"/>
<path d="M49.4,16.3c0-2.4-1.9-4.3-4.3-4.4c-2.5,0-4.4,1.8-4.4,4.2c0,2.4,1.9,4.3,4.3,4.4C47.4,20.6,49.4,18.7,49.4,16.3"/>
<path d="M31.8,15.4c-1.2,0-2.6,0.5-3.8,1.5c-0.7,0.5-0.8,1.1-0.1,1.8c1.9,1.9,3.1,4.2,3.9,6.8c0.4,1.3,1.2,1.5,2.4,0.7
	c1.3-0.9,2.7-1.8,3.9-2.7c0.4-0.3,0.7-1,0.8-1.5C39.1,18.4,36,15.4,31.8,15.4"/>
<path d="M50.2,18.9c2-0.4,3-1.8,4.2-3.4c1.3,3.1,1.7,6.2,1.4,9.6c1.3-0.5,2.5-1,3.6-1.5c0.3-0.1,0.5-0.6,0.6-0.9
	c1.1-4.4,1.1-8.8-0.8-13c-0.4-0.8-0.9-1.6-1.5-2.6c-1,2.9-2.8,4.8-5.2,6.6c-0.2-5.3-2.6-9.2-7-12.1c0.1,2.6-1.5,4-3.3,5.3
	c-2.2,1.6-3.9,3.5-4.9,6.3c-0.1-0.4-0.2-0.5-0.2-0.6c-0.1-2.6-1.5-4.5-3.5-6.1c-0.9-0.7-1.8-1.4-2.8-2C29,3.5,27.5,2.1,26.7,0
	c-2.9,1.9-6.3,8.6-5.7,11c0.3-0.2,0.6-0.4,0.9-0.6c3.1-2.2,7.1-0.8,8.3,2.8c0.2,0.5,0.3,1,1,0.9c3.1-0.2,5.8,0.6,7.9,3.5
	c0.2-0.9,0.3-1.6,0.4-2.2c0.4-1.9,1.4-3.5,3.3-4.2c1.9-0.8,3.8-0.7,5.5,0.7c2,1.5,2.4,3.6,2.1,6C50.3,18.2,50.2,18.5,50.2,18.9"/>
<path d="M8.2,27.7c6.9,3.2,40.4,2.1,53.1-1.3c-0.5,0.1,1.3-2.6,0.8-2.5c-0.4,0.1-7.6,2.5-8.2,2.6c1-3,0.6-5.8-0.1-8.9
	c-1.6,2.1-3.8,2.8-6,3.4c-2.4,0.7-4.9,1.2-7.2,2c-2.7,0.9-5.1,2.4-6.9,4.7c-0.7,0.8-1.5,0.4-2.2,0.3c-0.2,0-0.5-0.7-0.5-1.1
	c-0.9-4.7-3.4-8.4-7.5-10.8c-2.9-1.7-5.9-3-8.9-4.4c-1-0.5-2.1-0.9-2.9-1.6c-1.1-0.9-2.1-2-3.2-3C5.9,10.3,5.2,21.2,8.2,27.7"/>
<path class="st0" d="M50.5,24.2c-1.9,2.4-4.6,3.4-7.5,3.7C45.4,26.7,48,25.4,50.5,24.2"/>
<path class="st0" d="M40.1,16.5c0,1.6,2.7,4,4.5,4.1c1.8,0.1,3.6-1.8,3.6-3.9c0-2.2-1.7-4-3.9-4.1C42,12.5,40.1,14.2,40.1,16.5"/>
<path class="st0" d="M31.4,16.3c-1.1,0-2.5,0.5-3.7,1.4c-0.7,0.5-0.7,1.1-0.1,1.7c1.8,1.8,2.9,4,3.7,6.5c0.4,1.2,1.2,1.4,2.3,0.7
	c1.3-0.9,2.6-1.7,3.8-2.6c0.4-0.3,0.7-0.9,0.8-1.4C38.3,19.2,35.4,16.3,31.4,16.3"/>
<path class="st1" d="M22.4,13.3c0,1.2,2,3,3.4,3.1c1.4,0,2.7-1.4,2.7-2.9c0-1.7-1.3-3-2.9-3.1C23.8,10.2,22.4,11.6,22.4,13.3"/>
<path class="st0" d="M20.4,26.8c-4.2-1.5-10.2-8.3-10.8-12.2C12.3,19.5,15.9,23.6,20.4,26.8"/>
<path class="st0" d="M21.9,13.8c0,1.1,1.8,2.7,3,2.7c1.2,0,2.4-1.2,2.4-2.6c0-1.5-1.2-2.7-2.6-2.8C23.2,11.1,21.9,12.3,21.9,13.8"/>
</svg>
