<!-- Generator: Adobe Illustrator 21.1.0, SVG Export Plug-In  -->
<svg version="1.1"
	 xmlns="http://www.w3.org/2000/svg" xmlns:xlink="http://www.w3.org/1999/xlink" xmlns:a="http://ns.adobe.com/AdobeSVGViewerExtensions/3.0/"
	 x="0px" y="0px" width="29.9px" height="55.7px" viewBox="0 0 29.9 55.7" style="enable-background:new 0 0 29.9 55.7;"
	 xml:space="preserve">
<defs>
</defs>
<path d="M20.1,49.2c-0.4-3.3-0.6-6.5-1.1-9.7c-0.4-2.8,0.2-5.5,1.2-8.1c2-5.4,3.7-10.8,4.6-16.5c0.3-1.7,0.1-4.5,0.1-5.3H15h0H5
	c-0.1,0.8-0.2,3.6,0.1,5.3C6,20.7,7.7,26.1,9.7,31.5c1,2.6,1.6,5.2,1.2,8.1c-0.5,3.1-0.7,6.3-1.1,9.7c1.7,0.2,3.5,0.3,5.2,0.3v0l0,0
	l0,0v0C16.7,49.5,18.4,49.4,20.1,49.2 M14.9,55.7c-2.9,0-5.9-0.1-8.7-0.8c-1.8-0.4-2.2-1.1-2-2.9c0.6-4.4,1.1-8.8,1.7-13.1
	c0.4-2.7-0.8-5-1.6-7.5C2.8,26.1,1,20.9,0.2,15.5c-0.6-4.1-0.1-8,0.6-12.1c0.2-1,0.2-2.5,0.9-3c0.6-0.5,2-0.4,3-0.4
	c3.4,0,6.7,0,10.1,0h0c3.4,0,6.7,0,10.1,0c1,0,2.4-0.2,3,0.4c0.6,0.5,0.7,2,0.9,3c0.7,4.1,1.2,8,0.6,12.1
	c-0.8,5.4-2.5,10.6-4.2,15.8c-0.8,2.4-1.9,4.8-1.6,7.5c0.6,4.4,1.1,8.8,1.7,13.1c0.3,1.8-0.2,2.5-2,2.9
	C20.8,55.6,17.9,55.7,14.9,55.7z M19.8,14.8c0.7,0,1.3,0.6,1.3,1.3c0,0.7-0.6,1.3-1.3,1.3c-0.7,0-1.3-0.6-1.3-1.3
	C18.5,15.4,19.1,14.8,19.8,14.8z M12.3,25.9c0.5,0,0.8,0.4,0.8,0.8c0,0.5-0.4,0.8-0.8,0.8c-0.5,0-0.8-0.4-0.8-0.8
	C11.5,26.3,11.9,25.9,12.3,25.9z M14.9,32.7c0.3,0,0.6,0.3,0.6,0.6c0,0.3-0.3,0.6-0.6,0.6c-0.3,0-0.6-0.3-0.6-0.6
	C14.3,33,14.6,32.7,14.9,32.7z M17.6,29.2c0.3,0,0.6,0.3,0.6,0.6c0,0.3-0.3,0.6-0.6,0.6c-0.3,0-0.6-0.3-0.6-0.6
	C17,29.5,17.3,29.2,17.6,29.2z M13.3,19c0.4,0,0.7,0.3,0.7,0.7c0,0.4-0.3,0.7-0.7,0.7c-0.4,0-0.7-0.3-0.7-0.7
	C12.5,19.3,12.9,19,13.3,19z M17.4,21.3c0.2,0,0.4,0.2,0.4,0.4c0,0.2-0.2,0.4-0.4,0.4c-0.2,0-0.4-0.2-0.4-0.4
	C17,21.5,17.2,21.3,17.4,21.3z M13.5,40c0.5,0,1,0.4,1,1c0,0.5-0.4,1-1,1c-0.5,0-1-0.4-1-1C12.5,40.4,13,40,13.5,40z M16.5,42.6
	c0.4,0,0.8,0.3,0.8,0.8c0,0.4-0.3,0.8-0.8,0.8s-0.8-0.3-0.8-0.8C15.7,43,16,42.6,16.5,42.6z M15.6,12.4c0.2,0,0.4,0.2,0.4,0.4
	c0,0.2-0.2,0.4-0.4,0.4s-0.4-0.2-0.4-0.4C15.2,12.6,15.3,12.4,15.6,12.4z M9.9,13.7c0.6,0,1.1,0.5,1.1,1.1c0,0.6-0.5,1.1-1.1,1.1
	c-0.6,0-1.1-0.5-1.1-1.1C8.7,14.2,9.2,13.7,9.9,13.7z M7.2,51.9c2.6,0.5,5.2,0.7,7.7,0.7c2.5,0,5.1-0.3,7.7-0.7
	c-0.2-1.5-0.4-3-0.5-4.5c-0.3-2.9-0.6-5.8-1-8.6c-0.4-2.6,0.6-4.9,1.3-7.3c1.3-4.1,2.6-8.3,3.8-12.4C28,12,27.1,9.4,26.4,3.5
	c-0.1-0.7-0.4-1-1.2-1c-3.4,0-6.9,0-10.3,0h0c-3.4,0-6.9,0-10.3,0c-0.8,0-1.1,0.3-1.2,1C2.8,9.4,1.9,12,3.7,19.1
	c1.2,4.2,2.5,8.3,3.8,12.4c0.7,2.4,1.7,4.7,1.3,7.3c-0.4,2.9-0.7,5.7-1,8.6C7.6,48.9,7.4,50.4,7.2,51.9z"/>
</svg>
