<!-- Generator: Adobe Illustrator 21.1.0, SVG Export Plug-In  -->
<svg version="1.1"
	 xmlns="http://www.w3.org/2000/svg" xmlns:xlink="http://www.w3.org/1999/xlink" xmlns:a="http://ns.adobe.com/AdobeSVGViewerExtensions/3.0/"
	 x="0px" y="0px" width="459px" height="455.9px" viewBox="0 0 459 455.9" style="enable-background:new 0 0 459 455.9;"
	 xml:space="preserve">
<style type="text/css">
	.st0{fill-rule:evenodd;clip-rule:evenodd;}
	.st1{fill:#141515;}
</style>
<defs>
</defs>
<path class="st0" d="M29.2,204.8c6,0,11.7,2.3,15.9,6.6h0c0.7,0.7,1.7,0.7,2.4,0l2.4-2.4c0.6-0.7,0.6-1.7,0-2.4
	c-5.5-5.5-12.9-8.6-20.6-8.6c-7.8,0-15.1,3-20.7,8.6C3.1,212.2,0,219.6,0,227.4c0,7.8,3.1,15.1,8.5,20.6c5.5,5.5,12.9,8.6,20.7,8.6
	c7.8,0,15.1-3,20.6-8.6c0.6-0.6,0.6-1.7,0-2.4l-2.4-2.4c-0.6-0.6-1.7-0.6-2.4,0l0,0c-4.2,4.3-9.9,6.6-15.9,6.6
	c-6,0-11.7-2.3-15.9-6.6c-4.3-4.3-6.6-9.9-6.6-15.9c0-6,2.3-11.7,6.6-15.9C17.5,207.2,23.2,204.8,29.2,204.8"/>
<path class="st0" d="M441.5,222.6c-8.2-2.7-12.1-4.5-12.1-9.4c0-5.5,5.3-8.4,10.6-8.4c5.7,0,10.4,3.9,10.4,8.7
	c0,0.9,0.7,1.7,1.7,1.7l3.3,0c0.9,0,1.7-0.7,1.7-1.7c0-8.5-7.6-15.4-17.1-15.4c-9.8,0-17.3,6.5-17.3,15c0,10.2,9.3,13.3,16.7,15.8
	c8,2.6,12.9,4.6,12.9,10.5c0,6.8-6.2,10.4-12.3,10.4c-6.8,0-12.3-4.7-12.3-10.4c0-0.9-0.8-1.7-1.7-1.7l-3.3,0
	c-0.9,0-1.7,0.7-1.7,1.7c0,9.4,8.5,17.1,19,17.1c10.8,0,19-7.4,19-17.1C459,228.4,449.3,225.2,441.5,222.6"/>
<path class="st0" d="M102.5,253.4v-52.2c0-0.9-0.7-1.7-1.7-1.7h-3.3c-0.9,0-1.7,0.7-1.7,1.7l0,22.7H67.1v-22.8
	c0-0.9-0.7-1.7-1.7-1.7h-3.3c-0.9,0-1.7,0.7-1.7,1.7l0,52.2c0,0.9,0.7,1.7,1.6,1.7l3.3,0c0.9,0,1.6-0.7,1.6-1.7l0-22.7h28.8v22.7
	c0,0.9,0.8,1.7,1.6,1.7l3.3,0C101.8,255.1,102.5,254.4,102.5,253.4"/>
<path class="st0" d="M255.9,199.6h-15.5c-0.9,0-1.7,0.7-1.7,1.7l0,52.2c0,0.9,0.7,1.7,1.6,1.7l3.3,0c0.9,0,1.6-0.7,1.6-1.7l0-16.1
	h10.6c10.4,0,18.8-8.5,18.8-18.9C274.8,208.1,266.3,199.6,255.9,199.6 M255.9,230.7h-10.6v-24.4h10.6c6.7,0,12.2,5.5,12.2,12.2
	C268.1,225.2,262.6,230.7,255.9,230.7z"/>
<path class="st0" d="M302,199.6h-15.5c-0.9,0-1.7,0.7-1.7,1.7l0,52.2c0,0.9,0.8,1.7,1.7,1.7l3.3,0c0.9,0,1.7-0.7,1.7-1.7l0-16.1H302
	c10.4,0,18.8-8.5,18.8-18.9C320.8,208.1,312.4,199.6,302,199.6 M302,230.7h-10.5v-24.4H302c6.7,0,12.2,5.5,12.2,12.2
	C314.2,225.2,308.7,230.7,302,230.7z"/>
<path class="st0" d="M414.8,218.5c0-10.4-8.4-18.9-18.8-18.9h-18.3c-0.9,0-1.7,0.7-1.7,1.7v52.2c0,0.9,0.8,1.7,1.7,1.7l3.3,0
	c0.9,0,1.7-0.7,1.7-1.7l0-16.1h11.6l11.4,17c0,0,0.5,0.8,1.4,0.8l4,0c0.9,0,1.6-0.7,1.6-1.7c0-0.5-0.3-0.9-0.3-0.9l-10.7-16.1
	C409.3,234,414.8,226.9,414.8,218.5 M395.9,230.7h-13.4v-24.4h13.4c6.7,0,12.2,5.5,12.2,12.2C408.2,225.2,402.7,230.7,395.9,230.7z"
	/>
<path class="st0" d="M364.2,199.6h-31.7c-0.9,0-1.7,0.7-1.7,1.7l0,52.2c0,0.9,0.8,1.7,1.7,1.7l31.7,0c0.9,0,1.6-0.7,1.6-1.7l0-3.3
	c0-0.9-0.8-1.7-1.7-1.7h-26.7v-17.7h19.9c0.9,0,1.7-0.8,1.7-1.7l0-3.3c0-0.9-0.8-1.7-1.7-1.7l0,0h-19.9v-17.7h26.7
	c0.9,0,1.6-0.7,1.6-1.7l0-3.3C365.9,200.4,365.1,199.6,364.2,199.6"/>
<path class="st0" d="M220.2,204.5v-1.7c0-12.2-5.5-22.2-15.5-29.8c-9.1-6.9-21.2-10.6-34.1-10.6c-12.9,0-25,3.8-34.1,10.6
	c-10,7.6-15.5,17.6-15.5,29.8l0,1.7c0,0.9,0.7,1.7,1.7,1.7h0.9c-1.6,2.4-2.6,5.3-2.6,8.5l0,6.8c0,3.1,0.9,6,2.5,8.5l-0.9,0
	c-0.9,0-1.7,0.8-1.7,1.7l0,2.2c0,9.7,5.5,21.1,21,21.1l57.2,0c15.5,0,21-11.4,21-21.1v-2.2c0-0.9-0.8-1.7-1.7-1.7l-0.9,0
	c1.6-2.4,2.5-5.3,2.5-8.5v-6.8c0-3.1-0.9-6-2.5-8.5h0.9C219.5,206.2,220.2,205.5,220.2,204.5 M170.6,169.2
	c26.2,0,40.8,14.3,42.6,30.2H128C129.8,183.5,144.4,169.2,170.6,169.2z M205.1,212.3c-8.8,0-13.1,6.3-15.1,9.3
	c0,0.1-0.1,0.1-0.1,0.1c0,0-4.8,9-6.5,11.6c-0.9,1.3-2.4,1.2-3.2,0c-1.8-2.6-6.6-11.7-6.6-11.7c-2-2.9-4.2-4.5-6.7-4.9
	c-2.3-0.4-4.6,0.3-7,2c-2.5,1.9-4.4,1.5-6,0.2c-5.2-4.5-8.1-6.5-13.7-6.5h-12c1-3.5,4.3-6.1,8.1-6.1v0H205v0c3.8,0,7.1,2.6,8.1,6.1
	H205.1z M127.8,219.2h12.3c3.2,0,4.6,0.7,9.3,4.8c4.2,3.6,9.6,3.7,14.4,0.2c1.4-1.1,2.3-1.3,3.9,1.3c0.6,0.9,2.3,4.5,2.3,4.5
	l-33.8,0c-4.6,0-8.4-3.8-8.4-8.5L127.8,219.2z M199.2,248.1H142c-10.4,0-13.3-6.6-14-11.3h46.2c0,0,2.3,4.2,7.5,4.2
	c5.2,0,7.5-4.2,7.5-4.2h24C212.5,241.5,209.6,248.1,199.2,248.1z M213.4,220.7c0,4.7-3.8,9.2-8.4,9.2l-11.7,0l2.3-4.5
	c2.3-3.3,4.7-6.2,9.5-6.2h8.3V220.7z"/>
<path class="st0" d="M368.8,163.8c-11.7-24.6-29.7-45.7-51.9-61.1c-25-17.4-55.4-27.6-88.2-27.6c-32.8,0-63.2,10.2-88.2,27.6
	c-22.2,15.4-40.2,36.5-51.9,61.1h3.9c11.4-23.4,28.7-43.5,50-58.2c24.5-17,54.1-26.9,86.2-26.9c32,0,61.7,9.9,86.2,26.9
	c21.3,14.7,38.5,34.8,50,58.2H368.8z"/>
<path class="st0" d="M14.1,163.8c13.2-47.5,41.6-88.7,79.7-117.8C131.4,17.1,178.4,0,229.5,0c51.1,0,98.1,17.1,135.7,45.9
	c38.1,29.2,66.5,70.3,79.7,117.8h-4c-13-46.3-40.9-86.3-78.1-114.8c-37-28.3-83.2-45.1-133.4-45.1c-50.2,0-96.4,16.8-133.4,45.1
	c-37.2,28.5-65,68.5-78.1,114.8H14.1z"/>
<path class="st0" d="M368.8,292.1c-11.7,24.6-29.7,45.7-51.9,61.1c-25,17.4-55.4,27.6-88.2,27.6c-32.8,0-63.2-10.2-88.2-27.6
	c-22.2-15.4-40.2-36.5-51.9-61.1h3.9c11.4,23.4,28.7,43.5,50,58.2c24.5,17,54.1,26.9,86.2,26.9c32,0,61.7-9.9,86.2-26.9
	c21.3-14.7,38.5-34.8,50-58.2H368.8z"/>
<path class="st0" d="M14.1,292.1c13.2,47.5,41.6,88.7,79.7,117.8c37.6,28.8,84.7,45.9,135.7,45.9c51.1,0,98.1-17.1,135.7-45.9
	c38.1-29.2,66.5-70.3,79.7-117.8h-4c-13,46.3-40.9,86.3-78.1,114.8c-37,28.3-83.2,45.1-133.4,45.1c-50.2,0-96.4-16.8-133.4-45.1
	c-37.2-28.5-65-68.5-78.1-114.8H14.1z"/>
<path d="M359.5,107.7l6.8-6.6l15.8-2.9l-3.2-3.3l-11.4,2.3l2.7-11.3l-3.2-3.3l-3.5,15.7l-6.8,6.6L359.5,107.7z M344.4,93.5L357,78.8
	l5.3,4.5l2.3-2.7L351,69l-2.3,2.7l5.3,4.5l-12.6,14.7L344.4,93.5z M333.2,84.6L346.4,66l-3.3-2.3l-13.3,18.6L333.2,84.6z
	 M326.9,80.2l1.9-3l-8.6-5.3l10.2-16.4l-3.4-2.1l-12.1,19.4L326.9,80.2z M309.5,61.4l-7.4-3.6l8.4-8L309.5,61.4z M312.7,71.7
	l1.8-24.5L310,45l-18,16.7l4.1,2l3.4-3.2L309,65l-0.4,4.7L312.7,71.7z M280.9,59.1c6.3,1.9,10.5-0.8,12.2-6.2l4-13.2l-3.9-1.2
	l-3.9,13.1c-1,3.5-3.7,5.2-7.3,4.1c-3.7-1.1-4.9-4-3.9-7.4l3.9-13.1l-3.9-1.2l-4,13.3C272.5,52.6,274.5,57.2,280.9,59.1z M256.7,50
	c-4.6-0.7-6.9-4.7-6.2-9.3c0.7-4.7,4.2-7.7,8.7-7c4.5,0.7,6.9,4.6,6.2,9.3c-0.3,2-1.1,3.7-2.4,5l-2.3-3.6l-3.1,1.8l2.3,3.6
	C259,50.1,257.9,50.2,256.7,50z M256.2,53.5c2.1,0.3,4.1,0.2,5.9-0.5l1.6,2.5l3.1-1.9l-1.5-2.4c2.2-1.8,3.8-4.4,4.3-7.7
	c1-6.7-3-12.4-9.8-13.5c-6.8-1-12.3,3.2-13.3,9.9C245.4,46.8,249.4,52.5,256.2,53.5z M232,50.3l-1.6-22.8l-5.6,0.4l-5.2,15.4
	l-7.2-14.6l-5.6,0.4l1.6,22.8l4-0.3l-1.2-16.9l8.1,16.4l1.7-0.1l5.8-17.4l1.2,16.9L232,50.3z M193.8,54.8c6.5-1.4,8.9-5.7,7.7-11.3
	L198.7,30l-4,0.8l2.8,13.4c0.7,3.6-0.7,6.3-4.5,7.1c-3.8,0.8-6.2-1.1-7-4.7l-2.8-13.4l-4,0.8l2.9,13.5
	C183.4,53.1,187.3,56.1,193.8,54.8z M179.4,57.8l-7-21.8l-3.8,1.2l7,21.8L179.4,57.8z M170.9,60.4l-8.4-21.3l-5.3,2.1L157,57.5
	l-11.3-11.7l-5.3,2.1l8.4,21.3l3.7-1.5l-6.2-15.8l12.7,13.2l1.6-0.6l0.3-18.4l6.2,15.8L170.9,60.4z M145.3,71.3l-1.8-3l-10,6
	l-3.3-5.4l9.8-5.9l-1.8-3l-9.8,5.9l-3-5.1l10-6l-1.8-3l-13.4,8.1l11.8,19.6L145.3,71.3z M115,76.4l-4.5,3.2l-4.2-5.9l4.5-3.2
	c1.8-1.3,4-1.1,5.3,0.7C117.3,73,116.8,75.1,115,76.4z M128.6,81.5l-9.8-4c2-2,2.9-5.3,0.5-8.6c-2.5-3.4-6.6-4.1-10.2-1.5l-8.2,5.8
	l13.3,18.6l3.3-2.3l-5-6.9l3.2-2.3l9.1,4L128.6,81.5z M97.7,90.9l-4,3.8l-5-5.2l4-3.8c1.6-1.6,3.8-1.7,5.3-0.1
	C99.5,87.1,99.3,89.3,97.7,90.9z M102.1,103.4l-5.9-6.2l4.4-4.2c3.4-3.3,3.1-7.5,0.4-10.3c-2.7-2.8-6.9-3.3-10.3,0l-7.2,6.9
	l15.8,16.5L102.1,103.4z"/>
<polygon class="st0" points="267.1,425 266.6,421.5 255.1,423.3 254.1,417 265.3,415.2 264.8,411.8 253.5,413.5 252.6,407.7
	264.1,405.9 263.5,402.4 248.1,404.8 251.6,427.4 "/>
<path class="st0" d="M396.6,319.3c1.1-2,3.2-2.6,5.1-1.5c1.9,1.1,2.3,3.3,1.2,5.2l-2.8,4.7l-6.3-3.7L396.6,319.3z M381.4,321.4
	l19.7,11.5l5.1-8.7c2.4-4.1,0.9-8.1-2.4-10.1c-3.3-2-7.5-1.3-9.9,2.8l-3,5.2l-7.4-4.3L381.4,321.4z M413.1,312.5L393.3,301l-2,3.5
	L411,316L413.1,312.5z"/>
<path class="st0" d="M383,338.6l-3.3,4.4l-5.8-4.4l3.3-4.4c1.4-1.8,3.5-2.3,5.3-0.9C384.2,334.6,384.4,336.8,383,338.6 M389.3,350.2
	l-6.8-5.1l3.6-4.8c2.9-3.8,1.9-7.9-1.2-10.3c-3.1-2.3-7.3-2.2-10.2,1.6l-6,8l18.2,13.8L389.3,350.2z"/>
<polygon class="st0" points="381.7,359.9 379.2,357.5 371.1,365.8 366.5,361.4 374.5,353.2 371.9,350.8 364,359 359.7,354.9
	367.8,346.5 365.3,344 354.4,355.3 370.9,371.2 "/>
<polygon class="st0" points="356.2,383.8 344.1,368.7 353.3,361.4 351.1,358.7 338.8,368.4 353,386.3 "/>
<path class="st0" d="M333.7,384.4l-4.6,3l-4-6.1l4.6-3c1.9-1.2,4.1-1,5.3,0.9C336.2,381.1,335.6,383.2,333.7,384.4 M335.8,397.5
	l-4.7-7.1l5-3.3c4-2.6,4.4-6.9,2.3-10.1c-2.1-3.2-6.2-4.5-10.2-1.9l-8.4,5.5l12.6,19.1L335.8,397.5z"/>
<path class="st0" d="M312.5,411.1c3.5-1.8,4.1-4.4,4.1-7.4l-0.2-20.9l-4,2.1l0.6,14.7l-11.8-8.9l-4,2.1l15.4,10.9
	c0,2.4-0.3,3.5-2,4.3c-1,0.5-2.2,0.5-3.2,0.2l0.3,3.6C308.6,412.2,310.7,412,312.5,411.1"/>
<path class="st0" d="M290.6,408c2.1-0.7,4.2,0.1,4.9,2.2c0.7,2.1-0.4,4-2.6,4.7l-5.2,1.7l-2.3-6.9L290.6,408z M277.8,399.6l7.2,21.7
	l9.5-3.2c4.5-1.5,6-5.5,4.8-9.2c-1.2-3.7-4.8-5.9-9.4-4.4l-5.7,1.9l-1.6-4.7l11-3.7l-1.1-3.3L277.8,399.6z"/>
<path class="st0" d="M226.4,418.7c2.3,0.1,3.9,1.6,3.8,3.8c-0.1,2.2-1.8,3.6-4,3.5l-5.5-0.2l0.2-7.3L226.4,418.7z M217.3,406.3
	l-0.7,22.8l10,0.3c4.8,0.2,7.6-3,7.7-6.9c0.1-3.9-2.5-7.2-7.2-7.4l-6-0.2l0.3-8.5L217.3,406.3z"/>
<rect x="237.3" y="405.7" transform="matrix(0.9957 -9.225208e-02 9.225208e-02 0.9957 -37.4573 23.8513)" class="st0" width="4" height="22.9"/>
<polygon class="st0" points="207.3,427.9 210.9,405.4 207,404.7 205.5,413.9 193.8,412 195.3,402.8 191.3,402.2 187.6,424.7
	191.6,425.4 193.2,415.5 204.9,417.4 203.3,427.3 "/>
<path class="st0" d="M176.4,410.2c2.1,0.7,3.3,2.6,2.6,4.7c-0.7,2.1-2.7,2.9-4.9,2.2l-5.2-1.7l2.3-6.9L176.4,410.2z M171.2,395.7
	l-7.2,21.7l9.5,3.2c4.6,1.5,8.1-0.8,9.3-4.4c1.2-3.7-0.3-7.6-4.8-9.1l-5.7-1.9l2.7-8.1L171.2,395.7z"/>
<path class="st0" d="M136.4,406.8c4.1,1.6,7.5,1.3,12-7.4l4-7.6l7.4,2.9l-7,18l3.7,1.5l8.3-21.3l-14.5-5.7l-5.5,10.5
	c-3.2,6-4.8,6.7-7.1,5.8L136.4,406.8z"/>
<polygon class="st0" points="117,393.2 136,386.3 126.9,399.8 130.2,402 142.9,383.1 139.5,380.8 121,387.5 129.8,374.3 126.5,372
	113.8,391 "/>
<path class="st0" d="M103.7,378.5l-5-4.3l4.1-4.8l5,4.3c1.7,1.5,1.7,3.4,0.6,4.7C107.2,379.8,105.4,379.9,103.7,378.5 M110,370.9
	l-4.9-4.2l3.8-4.5l4.9,4.2c1.6,1.3,1.6,3.1,0.5,4.4C113.3,372,111.6,372.2,110,370.9z M102.2,381.8c3.3,2.8,6.8,2.3,9.1-0.4
	c1.8-2.1,1.9-5.3,0.3-7.1c1.9,1,4.6,0.8,6.4-1.4c2.1-2.5,2-5.9-1.2-8.7l-8.6-7.3l-14.8,17.4L102.2,381.8z"/>
<path class="st0" d="M89.7,358.7l-5.5-6.1l10.9-4.2L89.7,358.7z M88.7,369.5l11.1-21.9l-3.3-3.7l-23,8.5l3,3.4l4.4-1.7l7,7.8
	l-2.1,4.2L88.7,369.5z"/>
<path class="st0" d="M77.5,337.5l-2.9-4.6l6.2-3.9l2.9,4.6c1.2,1.9,0.9,4.1-1,5.2C80.7,340,78.7,339.4,77.5,337.5 M64.3,339.2
	l7.2-4.5l3.2,5.1c2.5,4,6.8,4.6,10,2.5c3.3-2.1,4.6-6.1,2.1-10.1l-5.3-8.5l-19.4,12.1L64.3,339.2z"/>
<polygon class="st0" points="57.2,328.3 77.8,318.4 69.2,300.4 48.6,310.3 50.3,313.9 67.7,305.6 72.9,316.3 55.5,324.7 "/>
<path class="st0" d="M295.2,293.8c-1.1,0-2,0.9-2,2c0,1.1,0.9,2,2,2c1.1,0,2-0.9,2-2C297.2,294.7,296.3,293.8,295.2,293.8
	L295.2,293.8z M159.8,293.8c-1.1,0-2,0.9-2,2c0,1.1,0.9,2,2,2c1.1,0,2-0.9,2-2C161.8,294.7,160.9,293.8,159.8,293.8z"/>
<path class="st1" d="M266.8,300.6c1,2.6,3,3.9,5.9,3.9c4.2,0,6.4-3,6.4-6.1c0-2.3-1.2-4.4-3.7-5.4c-1.9-0.8-4-0.7-5.9-0.1v-3.6h8.5
	V287H267v8.4l1.4,0.6c2.1-1.2,4-1.4,6.1-0.6c1.3,0.6,2,1.8,2,3.1c0,1.8-1.2,3.5-3.8,3.5c-1.7,0-2.9-0.9-3.6-2.4L266.8,300.6z
	 M263.2,304.6v-17.4h-2l-4.7,6.6l1.6,1.3l2.6-3.4v12.9H263.2z M247.2,304.7c4.4,0,6.7-4.4,6.7-8.8c0-4.4-2.2-8.9-6.7-8.9
	c-4.4,0-6.6,4.4-6.6,8.9C240.6,300.3,242.8,304.7,247.2,304.7z M247.2,289.5c2.8,0,4.1,2.9,4.1,6.4c0,3.3-1.3,6.4-4.1,6.4
	c-2.8,0-4-3.1-4-6.4C243.2,292.5,244.4,289.5,247.2,289.5z M227.6,292.7c0.3-1.9,1.4-3.3,3.6-3.3c4,0,4.7,4.1,2,6.1h0l-8.2,7.2v1.9
	h12.2v-2.4h-8l5.6-4.8c4.7-3.3,2.9-10.5-3.7-10.5c-3.6,0-5.6,2.5-6.1,5.6L227.6,292.7z M212.4,304.6v-15.2h5.2V287h-13v2.4h5.3v15.2
	H212.4z M203.5,291.6c-0.4-3.2-3.2-4.6-5.9-4.6c-2,0-4.1,0.8-5.3,2.3c-0.7,1-1,2.1-0.9,3.3v0c0.3,3.6,3.5,4.2,6.2,4.5
	c1.7,0.2,3.5,0.4,3.8,1.7c0,0.2,0.1,0.4,0.1,0.6c0,1.8-2,2.8-3.9,2.8c-1.6,0-3.6-0.8-3.7-2.5v0.1l0-0.4l-2.5,0l0,0.5
	c0.3,3.1,3.6,4.7,6.3,4.7c3.1,0,6.5-1.9,6.5-5.3c0-0.3,0-0.8-0.1-1.1c-0.7-2.8-3.6-3.4-6-3.7c-1.9-0.2-3.8-0.4-3.9-2.2
	c0-0.6,0.1-1.2,0.4-1.6c0.7-0.9,2-1.3,3.2-1.3c1.5,0,3.2,0.6,3.6,2.2L203.5,291.6z M181,296.9h7.9v-2.5H181v-4.9h8V287h-10.6v17.5
	h10.6v-2.5H181V296.9z"/>
</svg>
