<!-- Generator: Adobe Illustrator 21.1.0, SVG Export Plug-In  -->
<svg version="1.1"
	 xmlns="http://www.w3.org/2000/svg" xmlns:xlink="http://www.w3.org/1999/xlink" xmlns:a="http://ns.adobe.com/AdobeSVGViewerExtensions/3.0/"
	 x="0px" y="0px" width="350px" height="98.3px" viewBox="0 0 350 98.3" style="enable-background:new 0 0 350 98.3;"
	 xml:space="preserve">
<defs>
</defs>
<g>
	<g>
		<polygon points="37.3,98.1 38.6,98.1 38.6,87.6 45.1,87.6 45.1,98.1 46.4,98.1 46.4,86.4 37.3,86.4 		"/>
		<path d="M58.5,86.4h-4.4v11.6h1.3V94h2.8c2.5,0,4.6-1.3,4.6-3.8C62.9,87.8,61.2,86.4,58.5,86.4z M58.4,92.8h-2.9v-5.1h2.9
			c1.9,0,3.1,0.9,3.1,2.5C61.6,91.7,60.3,92.8,58.4,92.8z"/>
		<path d="M72.2,86.3l-5.3,11.7h1.3l1.4-3.1h6.3l1.4,3.1h1.4l-5.3-11.7H72.2z M70.1,93.8l2.7-5.9l2.6,5.9H70.1z"/>
		<path d="M91.4,92c0.9-0.4,1.8-1.2,1.8-2.7c0-0.8-0.3-1.4-0.7-1.9c-0.6-0.7-1.7-1-3-1h-5v11.6h5.2c2.5,0,4.2-1.2,4.2-3.2
			C93.9,93.3,92.8,92.5,91.4,92z M85.8,87.6h3.5c1.7,0,2.6,0.7,2.6,1.9c0,1.4-1.1,2.1-2.7,2.1h-3.4V87.6z M89.7,96.9h-3.9v-4.1h3.7
			c2,0,3.1,0.7,3.1,2C92.5,96.1,91.5,96.9,89.7,96.9z"/>
		<polygon points="102.3,96.1 102.3,86.4 100.9,86.4 100.9,98.1 102.2,98.1 109.2,88.4 109.2,98.1 110.5,98.1 110.5,86.4
			109.2,86.4 		"/>
		<path d="M120.1,88.5c0,7.9-1.5,8.5-2.4,8.5c-0.4,0-0.8-0.1-1-0.2l-0.3,1.1c0.3,0.1,1,0.3,1.5,0.3c1.8,0,3.5-1.1,3.5-9.3v-1.3h5
			v10.4h1.3V86.4h-7.5V88.5z"/>
		<path d="M139.6,90.9h-2.9v-4.5h-1.3v11.6h4.5c2.6,0,4.3-1.4,4.3-3.7C144.1,91.9,142.1,90.9,139.6,90.9z M139.8,96.9h-3.1v-4.8h3
			c1.9,0,3.1,0.8,3.1,2.3C142.8,96,141.7,96.9,139.8,96.9z"/>
		<polygon points="157.9,91.6 151.2,91.6 151.2,86.4 149.9,86.4 149.9,98.1 151.2,98.1 151.2,92.8 157.9,92.8 157.9,98.1
			159.2,98.1 159.2,86.4 157.9,86.4 		"/>
		<rect x="178.2" y="86.4" width="1.3" height="11.6"/>
		<path d="M171.2,90.9h-2.9v-4.5H167v11.6h4.5c2.6,0,4.3-1.4,4.3-3.7C175.8,91.9,173.7,90.9,171.2,90.9z M171.4,96.9h-3.1v-4.8h3
			c1.9,0,3.1,0.8,3.1,2.3C174.4,96,173.3,96.9,171.4,96.9z"/>
		<polygon points="188.6,92.8 194.9,92.8 194.9,91.6 188.6,91.6 188.6,87.6 195.7,87.6 195.7,86.4 187.3,86.4 187.3,98.1
			195.8,98.1 195.8,96.9 188.6,96.9 		"/>
		<path d="M214.3,91.2h-3.4v-3.6h7v-1.2h-8.3v11.6h4.9c2.6,0,4.3-1.2,4.3-3.5C218.7,92.2,216.8,91.2,214.3,91.2z M214.3,96.9h-3.5
			v-4.5h3.4c1.9,0,3.1,0.7,3.1,2.2C217.4,96.2,216.2,96.9,214.3,96.9z"/>
		<path d="M230.2,94l-4.3-7.6h-1.5l5.1,8.9c-0.7,1.3-1.5,1.7-2.3,1.7c-0.6,0-1-0.1-1.5-0.3l-0.5,1c0.6,0.3,1.2,0.5,2,0.5
			c1.4,0,2.6-0.7,3.6-2.6l4.6-9.2h-1.4L230.2,94z"/>
		<path d="M245.8,86.4h-4.4v11.6h1.3V94h2.8c2.5,0,4.6-1.3,4.6-3.8C250.1,87.8,248.4,86.4,245.8,86.4z M245.6,92.8h-2.9v-5.1h2.9
			c1.9,0,3.1,0.9,3.1,2.5C248.8,91.7,247.5,92.8,245.6,92.8z"/>
		<polygon points="256.3,98.1 257.6,98.1 257.6,87.6 263.8,87.6 263.8,86.4 256.3,86.4 		"/>
		<polygon points="271,92.8 277.4,92.8 277.4,91.6 271,91.6 271,87.6 278.1,87.6 278.1,86.4 269.7,86.4 269.7,98.1 278.2,98.1
			278.2,96.9 271,96.9 		"/>
		<path d="M289.5,86.4h-4.4v11.6h1.3V94h2.8c2.5,0,4.6-1.3,4.6-3.8C293.8,87.8,292.1,86.4,289.5,86.4z M289.3,92.8h-2.9v-5.1h2.9
			c1.9,0,3.1,0.9,3.1,2.5C292.5,91.7,291.2,92.8,289.3,92.8z"/>
		<rect x="311.4" y="86.4" width="1.3" height="11.6"/>
		<path d="M304.5,90.9h-2.9v-4.5h-1.3v11.6h4.5c2.6,0,4.3-1.4,4.3-3.7C309,91.9,307,90.9,304.5,90.9z M304.6,96.9h-3.1v-4.8h3
			c1.9,0,3.1,0.8,3.1,2.3C307.7,96,306.5,96.9,304.6,96.9z"/>
	</g>
	<g>
		<path d="M21.4,29.6c4.4,0,8.5,1.7,11.7,4.8h0c0.5,0.5,1.2,0.5,1.7,0c0.5-0.5,1.2-1.2,1.7-1.7c0.5-0.5,0.5-1.2,0-1.7
			c-4-4-9.4-6.3-15.1-6.3c-5.7,0-11.1,2.2-15.1,6.3C2.2,35,0,40.3,0,46.1s2.2,11.1,6.3,15.1c4,4,9.4,6.3,15.1,6.3
			c5.7,0,11.1-2.2,15.1-6.3c0.5-0.5,0.5-1.2,0-1.7l-1.7-1.7c-0.5-0.5-1.2-0.5-1.7,0v0c-3.1,3.1-7.3,4.8-11.7,4.8
			c-4.4,0-8.5-1.7-11.7-4.8c-3.1-3.1-4.8-7.3-4.8-11.7c0-4.4,1.7-8.5,4.8-11.7C12.8,31.3,17,29.6,21.4,29.6z"/>
		<path d="M337.2,42.6c-6-2-8.9-3.3-8.9-6.9c0-4,3.9-6.1,7.8-6.1c4.2,0,7.6,2.9,7.6,6.4c0,0.7,0.5,1.2,1.2,1.2s1.8,0,2.4,0
			c0.7,0,1.2-0.5,1.2-1.2c0-6.2-5.6-11.3-12.5-11.3c-7.2,0-12.6,4.7-12.6,11c0,7.5,6.8,9.7,12.2,11.5c5.8,1.9,9.4,3.3,9.4,7.7
			c0,5-4.5,7.6-9,7.6c-5,0-9-3.4-9-7.6c0-0.7-0.5-1.2-1.2-1.2h-2.4c-0.7,0-1.2,0.5-1.2,1.2c0,6.9,6.2,12.5,13.9,12.5
			c7.9,0,13.9-5.4,13.9-12.5C350,46.8,342.9,44.5,337.2,42.6z"/>
		<path d="M76.1,65.1V27c0-0.7-0.5-1.2-1.2-1.2h-2.4c-0.7,0-1.2,0.5-1.2,1.2v16.6h-21V27c0-0.7-0.5-1.2-1.2-1.2h-2.4
			c-0.7,0-1.2,0.5-1.2,1.2v38.2c0,0.7,0.5,1.2,1.2,1.2s1.8,0,2.4,0c0.7,0,1.2-0.5,1.2-1.2V48.5h21v16.6c0,0.7,0.5,1.2,1.2,1.2
			c0.7,0,1.8,0,2.4,0C75.5,66.4,76.1,65.8,76.1,65.1z"/>
		<path d="M188.7,25.7h-11.4c-0.7,0-1.2,0.5-1.2,1.2v38.2c0,0.7,0.5,1.2,1.2,1.2c0.7,0,1.8,0,2.4,0c0.7,0,1.2-0.5,1.2-1.2V53.3h7.7
			c7.6,0,13.8-6.2,13.8-13.8S196.3,25.7,188.7,25.7z M188.7,48.5H181V30.6h7.7c4.9,0,8.9,4,8.9,8.9S193.6,48.5,188.7,48.5z"/>
		<path d="M225.3,25.7H214c-0.7,0-1.2,0.5-1.2,1.2v38.2c0,0.7,0.5,1.2,1.2,1.2c0.7,0,1.8,0,2.4,0c0.7,0,1.2-0.5,1.2-1.2V53.3h7.7
			c7.6,0,13.8-6.2,13.8-13.8S232.9,25.7,225.3,25.7z M225.3,48.5h-7.7V30.6h7.7c4.9,0,8.9,4,8.9,8.9S230.3,48.5,225.3,48.5z"/>
		<path d="M313.7,39.5c0-7.6-6.2-13.8-13.8-13.8h-13.4c-0.7,0-1.2,0.5-1.2,1.2v38.2c0,0.7,0.5,1.2,1.2,1.2c0.7,0,1.8,0,2.4,0
			c0.7,0,1.2-0.5,1.2-1.2V53.3h8.5l8.3,12.4c0,0,0.4,0.6,1,0.6c0.7,0,2.3,0,2.9,0c0.7,0,1.2-0.5,1.2-1.2c0-0.4-0.2-0.7-0.2-0.7
			L304,52.7C309.6,50.9,313.7,45.7,313.7,39.5z M299.9,48.5h-9.8V30.6h9.8c4.9,0,8.9,4,8.9,8.9S304.8,48.5,299.9,48.5z"/>
		<path d="M273.8,25.7h-23.2c-0.7,0-1.2,0.5-1.2,1.2v38.2c0,0.7,0.5,1.2,1.2,1.2c0.7,0,23.2,0,23.2,0c0.7,0,1.2-0.5,1.2-1.2
			c0-0.7,0-1.8,0-2.4c0-0.7-0.5-1.2-1.2-1.2v0h-19.5v-13h14.5c0.7,0,1.2-0.5,1.2-1.2c0-0.7,0-1.8,0-2.4c0-0.7-0.5-1.2-1.2-1.2v0
			h-14.5v-13h19.5c0.7,0,1.2-0.5,1.2-1.2c0-0.7,0-1.8,0-2.4C275,26.3,274.5,25.7,273.8,25.7z"/>
		<path d="M161.7,30.8v-1.2h0c0-8.8-4-16.6-11.1-22C144,2.7,135.3,0,126.1,0c-9.3,0-17.9,2.7-24.5,7.6c-7.2,5.4-11.1,13.2-11.1,22
			v1.2c0,0.7,0.5,1.2,1.2,1.2h0.6c-1.2,1.7-1.8,3.8-1.8,6.1v4.3c0,2.2,0.7,4.3,1.8,6.1h-0.6c-0.7,0-1.2,0.5-1.2,1.2v1.5
			c0,7,3.9,15.1,15.1,15.1h41.1c11.1,0,15.1-8.1,15.1-15.1v-1.5c0-0.7-0.5-1.2-1.2-1.2h-0.6c1.2-1.7,1.8-3.8,1.8-6.1v-4.3
			c0-2.2-0.7-4.3-1.8-6.1h0.6C161.1,32.1,161.7,31.5,161.7,30.8z M126.1,4.9c18.8,0,29.3,10.9,30.6,22.3H95.5
			C96.8,15.7,107.3,4.9,126.1,4.9z M150.8,36.4c-6.3,0-9.4,4.5-10.9,6.7c0,0,0,0.1-0.1,0.1c0,0-3.4,5.8-4.7,7.7
			c-0.6,0.9-1.7,0.9-2.3,0c-1.3-1.9-4.7-7.8-4.8-7.8c-1.4-2.1-3-3.2-4.8-3.6c-1.7-0.3-3.3,0.2-5,1.4c-1.8,1.3-3.2,1.1-4.3,0.1
			c-3.7-3.2-5.8-4.6-9.9-4.6h-8.6c0.7-2.5,3.1-4.4,5.8-4.4v0h49.3v0c2.8,0,5.1,1.9,5.8,4.4H150.8z M95.4,41.3h8.9
			c2.3,0,3.3,0.5,6.7,3.5c3,2.6,6.9,2.6,10.3,0.1c1-0.8,1.6-0.9,2.8,0.9c0.4,0.7,1.6,2.7,1.6,2.7h-24.3c-3.3,0-6.1-2.7-6.1-6.1V41.3
			z M146.6,61.5h-41.1c-7.5,0-9.5-4.7-10-8.1h33.2c0,0,1.7,3,5.4,3c3.7,0,5.4-3,5.4-3h17.2C156.1,56.8,154.1,61.5,146.6,61.5z
			 M156.8,42.4c0,3.3-2.7,6.1-6.1,6.1h-8.4l1.6-2.7c1.6-2.4,3.4-4.5,6.8-4.5h6V42.4z"/>
	</g>
</g>
</svg>
