<!-- Generator: Adobe Illustrator 21.1.0, SVG Export Plug-In  -->
<svg version="1.1"
	 xmlns="http://www.w3.org/2000/svg" xmlns:xlink="http://www.w3.org/1999/xlink" xmlns:a="http://ns.adobe.com/AdobeSVGViewerExtensions/3.0/"
	 x="0px" y="0px" width="62.8px" height="46.3px" viewBox="0 0 62.8 46.3" style="enable-background:new 0 0 62.8 46.3;"
	 xml:space="preserve">
<style type="text/css">
	.st0{fill-rule:evenodd;clip-rule:evenodd;fill:#020202;}
	.st1{fill:#141515;}
</style>
<defs>
</defs>
<path class="st0" d="M27.7,0.2c-6.3,0.6-13,2.6-17.6,5.3c-2.7,1.6-4.5,2.9-6.7,4.6c-2.3,1.8-5.1,4.4-2,6.9c2.5,2.1,4.4-0.8,7.3-3
	c12.6-9.8,29.9-10.2,43.4-1.5c4.6,3,5.9,6.1,8.8,4.8c1.7-0.8,3-3.5,0.5-5.6c-1-0.9-1.8-1.7-3-2.6c-1.2-0.9-2.1-1.5-3.4-2.4
	c-2.2-1.4-4.8-2.7-7.6-3.8C41.5,0.7,34.6-0.4,27.7,0.2"/>
<path class="st0" d="M27.6,12.2c-6.4,0.8-11.9,3.3-16.5,7c-0.4,0.4-0.7,0.7-1.2,1.1c-0.8,0.6-1.6,1.1-1.7,2.5
	c-0.2,1.5,0.5,2.6,1.3,3.1c3.3,2.2,4.2-1.6,10.8-5c4.1-2.1,9.4-3,14.6-2.3c4.9,0.7,10.4,3.4,13.2,6c0.5,0.5,0.6,0.7,1.1,1.1
	c0.9,0.7,2,1.1,3.4,0.5c2.3-1,2.6-3.8,0.8-5.6C46.7,14.3,37.1,11,27.6,12.2"/>
<path class="st0" d="M29.2,24c-3.4,0.4-6.2,1.6-8.6,3.1c-8.3,5.2-2.4,9.1,0.3,7.9c1.6-0.7,5.1-5.8,13-4.5c3.8,0.6,5.4,2.4,7.5,4
	c2.8,2.2,6.7-1.5,4.7-4.2c-1.4-1.9-4.5-3.9-6.8-4.8C36.1,24.2,33,23.6,29.2,24"/>
<path class="st1" d="M36.5,41.2c0-2.8-2.3-5.1-5.1-5.1c-2.8,0-5.1,2.3-5.1,5.1c0,2.8,2.3,5.2,5.2,5.1C34.2,46.2,36.4,44.1,36.5,41.2
	"/>
</svg>
